# xmcd CD database file
#
# Track frame offsets:
#	150
#	20929
#	33479
#	46469
#	56407
#	68245
#	80894
#	91104
#	111844
#	134445
#	145181
#
# Disc length: 2132 seconds
#
# Revision: 2
# Processed by: cddbd v1.5.2PL0 Copyright (c) Steve Scherf et al.
# Submitted via: CDex 1.51
#
DISCID=9e08520b
DTITLE=David Allen Coe - David Allen Coe At His Best
DYEAR=2002
DGENRE=Country
TTITLE0=You Never Even Called Me By Name (The Perfect Country and Western  Song)
TTITLE1=Tennessee Whiskey
TTITLE2=How Fast Them Trucks Can Go
TTITLE3=Frankie And Johnny
TTITLE4=18 Wheels Hummin' Home Sweet Home
TTITLE5=From Heavens Door
TTITLE6=Rollin' In My Sweet Baby's Arms
TTITLE7=Powder Brown
TTITLE8=House Of The Rising Sun
TTITLE9=Rings On The Bar
TTITLE10=Prisoner's Song
EXTD=YEAR: 2002
EXTT0=
EXTT1=
EXTT2=
EXTT3=
EXTT4=
EXTT5=
EXTT6=
EXTT7=
EXTT8=
EXTT9=
EXTT10=
PLAYORDER=
